<?xml version="1.0" encoding="iso-8859-1"?>
<!-- Uploaded to: SVG Repo, www.svgrepo.com, Generator: SVG Repo Mixer Tools -->
<svg version="1.1" id="Layer_1" xmlns="http://www.w3.org/2000/svg" xmlns:xlink="http://www.w3.org/1999/xlink" 
	 viewBox="0 0 511.836 511.836" xml:space="preserve">
<path style="fill:#E5E8EC;" d="M91.558,351.482c-20.103-9.965-46.126-39.441-66.276-75.07C15.207,258.59,7.74,240.954,3.679,225.428
	c-4.967-18.933-4.905-34.646,0.188-46.658c4.046-9.56,13.34-21.524,34.708-24.258c16.573-2.141,37.708,1.468,64.621,11.012
	l-7.123,20.119c-23.368-8.294-63.855-19.119-72.556,1.438c-6.404,15.104,1.39,45.313,20.337,78.819
	c17.635,31.194,41.144,58.514,57.186,66.464L91.558,351.482z"/>
<rect x="347.478" y="213.16" transform="matrix(0.7071 0.7071 -0.7071 0.7071 326.3606 -161.5161)" style="fill:#967ADA;" width="21.34" height="200.068"/>
<polygon style="fill:#E5E8EC;" points="421.332,234.909 436.422,249.998 511.836,234.909 436.422,159.479 "/>
<path style="fill:#AC92EA;" d="M85.154,170.585c0-11.794,9.56-21.338,21.337-21.338h192.003c11.795,0,21.338,9.544,21.338,21.338
	v234.679l0,0l0,0c0,11.777-52.531,21.321-117.339,21.321c-64.809,0-117.339-9.544-117.339-21.321l0,0l0,0L85.154,170.585
	L85.154,170.585z"/>
<path style="fill:#E5E8EC;" d="M202.493,85.251c-5.889,0-10.668,4.765-10.668,10.653v85.349c0,5.89,4.78,10.669,10.668,10.669
	s10.668-4.779,10.668-10.669V95.904C213.162,90.016,208.382,85.251,202.493,85.251z"/>
<path style="fill:#FECD57;" d="M159.053,286.939c-3.905-8.84-2.249-19.541,4.999-26.788c7.248-7.248,17.963-8.92,26.804-5.015
	c5.702-7.794,15.808-11.715,25.711-9.06s16.698,11.091,17.729,20.713c9.622,1.03,18.057,7.825,20.712,17.729
	c2.656,9.902-1.265,20.009-9.075,25.711c3.92,8.84,2.249,19.556-4.999,26.788c-7.248,7.247-17.963,8.919-26.804,5.015
	c-5.702,7.81-15.808,11.715-25.695,9.059c-9.903-2.654-16.698-11.09-17.745-20.696c-9.606-1.046-18.057-7.841-20.697-17.745
	C147.338,302.764,151.243,292.657,159.053,286.939z"/>
<path style="fill:#F5BA45;" d="M194.683,362.589c-3.03,0-6.061-0.406-9.013-1.187c-11.184-3-20.072-11.481-23.836-22.166
	c-10.668-3.748-19.15-12.637-22.149-23.82c-2.999-11.185-0.094-23.118,7.279-31.709c-2.093-11.122,1.359-22.915,9.56-31.101
	c6.561-6.576,15.292-10.185,24.57-10.185c2.218,0,4.39,0.203,6.529,0.609c6.248-5.373,14.308-8.45,22.696-8.45
	c3.03,0,6.061,0.406,9.013,1.187c11.184,2.999,20.057,11.481,23.821,22.166c10.668,3.748,19.15,12.637,22.15,23.82
	c2.998,11.184,0.094,23.118-7.264,31.709c2.076,11.138-1.375,22.915-9.56,31.1c-6.561,6.576-15.292,10.186-24.586,10.186
	c-2.203,0-4.39-0.203-6.514-0.609C211.116,359.527,203.056,362.589,194.683,362.589z M181.093,263.76
	c-3.577,0-6.951,1.391-9.497,3.936c-3.889,3.891-5.014,9.904-2.78,14.934l3.468,7.857l-6.936,5.076
	c-4.452,3.249-6.482,9.013-5.061,14.34c1.437,5.311,6.077,9.293,11.543,9.887l8.544,0.922l0.921,8.529
	c0.594,5.482,4.561,10.121,9.888,11.543c1.156,0.312,2.328,0.469,3.499,0.469c4.264,0,8.31-2.062,10.84-5.514l5.061-6.936
	l7.873,3.467c1.703,0.766,3.546,1.156,5.436,1.156c3.592,0,6.966-1.406,9.497-3.936c3.905-3.906,5.014-9.904,2.796-14.949
	l-3.468-7.857l6.92-5.061c4.452-3.265,6.482-9.028,5.061-14.34c-1.422-5.326-6.061-9.309-11.543-9.887l-8.544-0.922l-0.921-8.545
	c-0.594-5.482-4.561-10.121-9.888-11.543c-1.14-0.312-2.328-0.469-3.483-0.469c-4.28,0-8.326,2.062-10.856,5.514l-5.061,6.936
	l-7.857-3.467C184.827,264.135,182.999,263.76,181.093,263.76z"/>
<path style="fill:#F4F6F9;" d="M191.825,298.593c0,5.889,4.78,10.669,10.668,10.669s10.668-4.78,10.668-10.669
	c0-5.904-4.78-10.669-10.668-10.669S191.825,292.689,191.825,298.593z"/>
</svg>